HIERARCHY
ROOT Hips
{
    OFFSET 0.000000 0.000000 0.000000
    CHANNELS 6 Xposition Yposition Zposition Zrotation Xrotation Yrotation
    JOINT Spine
    {
        OFFSET -0.000000 7.236184 0.000000
        CHANNELS 3 Zrotation Xrotation Yrotation
        JOINT Spine1
        {
            OFFSET -0.000000 20.420147 0.000000
            CHANNELS 3 Zrotation Xrotation Yrotation
            JOINT Neck
            {
                OFFSET -0.000000 20.336288 1.848754
                CHANNELS 3 Zrotation Xrotation Yrotation
                JOINT Head
                {
                    OFFSET -0.000000 12.354461 -1.764923
                    CHANNELS 3 Zrotation Xrotation Yrotation
                    End Site
                    {
                        OFFSET -0.000000 22.061537 0.000000
                    }
                }
            }
            JOINT LeftShoulder
            {
                OFFSET 3.573296 18.396038 -0.314103
                CHANNELS 3 Zrotation Xrotation Yrotation
                JOINT LeftArm
                {
                    OFFSET 10.880760 0.000000 0.000000
                    CHANNELS 3 Zrotation Xrotation Yrotation
                    JOINT LeftForeArm
                    {
                        OFFSET 27.185530 0.000000 0.000000
                        CHANNELS 3 Zrotation Xrotation Yrotation
                        JOINT LeftHand
                        {
                            OFFSET 27.825975 0.000000 0.000000
                            CHANNELS 3 Zrotation Xrotation Yrotation
                            End Site
                            {
                                OFFSET 13.236923 0.000000 0.000000
                            }
                        }
                    }
                }
            }
            JOINT RightShoulder
            {
                OFFSET -3.474926 18.396038 -0.314103
                CHANNELS 3 Zrotation Xrotation Yrotation
                JOINT RightArm
                {
                    OFFSET -10.880760 0.000000 0.000000
                    CHANNELS 3 Zrotation Xrotation Yrotation
                    JOINT RightForeArm
                    {
                        OFFSET -27.185530 0.000000 0.000000
                        CHANNELS 3 Zrotation Xrotation Yrotation
                        JOINT RightHand
                        {
                            OFFSET -27.825975 0.000000 0.000000
                            CHANNELS 3 Zrotation Xrotation Yrotation
                            End Site
                            {
                                OFFSET -13.236923 0.000000 0.000000
                            }
                        }
                    }
                }
            }
        }
    }
    JOINT LeftUpLeg
    {
        OFFSET 8.824615 0.000000 0.000000
        CHANNELS 3 Zrotation Xrotation Yrotation
        JOINT LeftLeg
        {
            OFFSET -0.000000 -35.111282 0.000000
            CHANNELS 3 Zrotation Xrotation Yrotation
            JOINT LeftFoot
            {
                OFFSET -0.000000 -42.324711 0.000000
                CHANNELS 3 Zrotation Xrotation Yrotation
                JOINT LeftToeBase
                {
                    OFFSET -0.000000 -5.735999 13.236923
                    CHANNELS 3 Zrotation Xrotation Yrotation
                    End Site
                    {
                        OFFSET -0.000000 0.000000 3.529846
                    }
                }
            }
        }
    }
    JOINT RightUpLeg
    {
        OFFSET -8.824615 0.000000 0.000000
        CHANNELS 3 Zrotation Xrotation Yrotation
        JOINT RightLeg
        {
            OFFSET -0.000000 -35.111282 0.000000
            CHANNELS 3 Zrotation Xrotation Yrotation
            JOINT RightFoot
            {
                OFFSET -0.000000 -42.324711 0.000000
                CHANNELS 3 Zrotation Xrotation Yrotation
                JOINT RightToeBase
                {
                    OFFSET -0.000000 -5.735999 13.236923
                    CHANNELS 3 Zrotation Xrotation Yrotation
                    End Site
                    {
                        OFFSET -0.000000 0.000000 3.529846
                    }
                }
            }
        }
    }
}
MOTION
Frames:    11
Frame Time:    0.008333
-0.141677    80.132088    113.413826    -1.982169    -7.544242    -174.778976    -2.227185    -13.538674    0.455230    -0.778965    7.735446    0.772240    1.493567    7.624969    -3.818902    7.334749    -8.852231    -2.495044    2.340813    17.713898    -2.798267    -45.940689    46.658821    -38.403774    2.620548    -8.314519    -16.478861    18.829493    -7.436526    3.055904    6.545101    20.188456    -5.189279    38.779194    47.080685    39.380417    -2.453445    -9.287124    17.512051    -16.701429    -8.323473    -4.066778    2.299213    -14.544241    -1.344398    -0.545894    19.814022    -2.120708    -3.483057    -11.597150    -8.759989    -0.856921    -0.178889    0.950170    -14.703588    -4.042441    -2.233187    4.908262    3.932561    1.794456    5.402664    -5.103062    -11.561268    -0.012360    -0.416801    0.013377    
-0.134351    80.125679    113.418579    -1.958166    -7.513775    -174.729156    -2.209864    -13.532935    0.478635    -0.783153    7.756455    0.794017    1.502702    7.652128    -3.847975    7.372512    -8.775879    -2.522197    2.328072    17.741169    -2.752941    -46.111786    46.575958    -38.222408    2.591368    -8.358429    -16.453613    18.728439    -7.496705    3.002977    6.560169    20.190844    -5.198322    38.767685    47.086849    39.391781    -2.480203    -9.301329    17.519970    -16.679220    -8.334117    -4.067837    2.302286    -14.586411    -1.392804    -0.518387    19.920103    -2.121535    -3.490927    -11.634800    -8.767987    -0.858580    -0.184200    0.952019    -14.678394    -3.995645    -2.225570    4.912702    3.921010    1.776665    5.410620    -5.112534    -11.579669    -0.013233    -0.413632    0.014321    
-0.127080    80.119301    113.423370    -1.934343    -7.483570    -174.679703    -2.192645    -13.527405    0.502266    -0.787578    7.777457    0.815894    1.511988    7.678902    -3.877226    7.410563    -8.700624    -2.549453    2.315192    17.769020    -2.706895    -46.284607    46.490997    -38.039131    2.562059    -8.401327    -16.427170    18.631971    -7.555361    2.952041    6.575047    20.193283    -5.207570    38.755833    47.093277    39.403812    -2.507061    -9.315975    17.528542    -16.656256    -8.345208    -4.068742    2.305072    -14.628559    -1.441850    -0.491056    20.025723    -2.121826    -3.498770    -11.672334    -8.775658    -0.860235    -0.189467    0.953863    -14.653457    -3.949176    -2.217428    4.917346    3.909234    1.758803    5.418426    -5.121908    -11.598308    -0.014106    -0.410545    0.015266    
-0.120067    80.113152    113.428047    -1.911212    -7.454326    -174.632217    -2.175756    -13.522245    0.525511    -0.792484    7.798144    0.837509    1.521149    7.703900    -3.905993    7.448076    -8.629080    -2.576175    2.302086    17.797512    -2.660861    -46.457436    46.404140    -37.856194    2.532872    -8.441002    -16.399090    18.546270    -7.609579    2.906280    6.589673    20.195452    -5.216832    38.743797    47.100010    39.416161    -2.533325    -9.330850    17.538206    -16.632704    -8.356691    -4.069208    2.307595    -14.668989    -1.490541    -0.464579    20.127403    -2.120953    -3.506370    -11.708675    -8.782875    -0.861812    -0.194630    0.955621    -14.629257    -3.904045    -2.208445    4.921959    3.897212    1.741458    5.425993    -5.130933    -11.616991    -0.014909    -0.407721    0.016134    
-0.113421    80.107285    113.432602    -1.889110    -7.426728    -174.587372    -2.159435    -13.517941    0.548299    -0.798149    7.818455    0.858817    1.530210    7.726359    -3.934189    7.484788    -8.562430    -2.602197    2.288964    17.826584    -2.614566    -46.632008    46.315205    -37.672581    2.504028    -8.476492    -16.368538    18.473742    -7.658097    2.867348    6.603689    20.196953    -5.225971    38.731960    47.107609    39.428688    -2.559093    -9.346263    17.549440    -16.607933    -8.368859    -4.069104    2.309666    -14.707729    -1.538970    -0.439423    20.224186    -2.118792    -3.513471    -11.743494    -8.788914    -0.863326    -0.199498    0.957308    -14.606322    -3.861074    -2.198177    4.926771    3.884784    1.724557    5.433001    -5.139350    -11.635769    -0.015658    -0.404777    0.016945    
-0.107205    80.101784    113.436981    -1.868108    -7.400809    -174.545624    -2.143670    -13.514279    0.570603    -0.804691    7.838195    0.879823    1.539144    7.746040    -3.961709    7.520439    -8.502160    -2.627428    2.275518    17.857092    -2.568073    -46.808929    46.223049    -37.487949    2.475609    -8.507379    -16.334703    18.414686    -7.700372    2.835991    6.617174    20.198318    -5.235148    38.719910    47.115406    39.442024    -2.583868    -9.362064    17.562702    -16.581701    -8.381696    -4.068184    2.311391    -14.743983    -1.587030    -0.415864    20.314911    -2.114735    -3.520024    -11.776548    -8.793943    -0.864753    -0.203962    0.958897    -14.584663    -3.820388    -2.186408    4.931580    3.872007    1.708277    5.439498    -5.147192    -11.654573    -0.016283    -0.402121    0.017621    
-0.101474    80.096642    113.441238    -1.848308    -7.376916    -174.507233    -2.128485    -13.511610    0.592502    -0.812413    7.857541    0.900539    1.547954    7.762570    -3.988590    7.555175    -8.449166    -2.651807    2.261809    17.889385    -2.520907    -46.989841    46.126522    -37.301201    2.447591    -8.533365    -16.296675    18.367277    -7.736253    2.812066    6.630075    20.198864    -5.244376    38.707802    47.124229    39.455845    -2.607746    -9.378513    17.578369    -16.553593    -8.395449    -4.066287    2.312676    -14.777929    -1.634713    -0.393988    20.399233    -2.108763    -3.525900    -11.807649    -8.797728    -0.866123    -0.207954    0.960424    -14.564485    -3.782269    -2.172997    4.936570    3.858501    1.692309    5.445401    -5.154135    -11.673141    -0.016783    -0.399450    0.018163    
-0.096283    80.091896    113.445328    -1.829775    -7.354952    -174.472443    -2.113928    -13.509662    0.614015    -0.821308    7.876289    0.921062    1.556439    7.775191    -4.014906    7.588972    -8.403339    -2.675376    2.247395    17.923780    -2.472975    -47.176205    46.024670    -37.110821    2.420248    -8.554780    -16.253544    18.327986    -7.766251    2.794862    6.642382    20.199064    -5.253871    38.695412    47.133793    39.470634    -2.630793    -9.395557    17.596844    -16.523037    -8.410115    -4.063256    2.313538    -14.809061    -1.682051    -0.373906    20.476721    -2.100597    -3.531013    -11.836815    -8.800268    -0.867402    -0.212231    0.961849    -14.545861    -3.746693    -2.157712    4.941646    3.844335    1.676850    5.450716    -5.160224    -11.691612    -0.017017    -0.397015    0.018416    
-0.091795    80.087639    113.449272    -1.813085    -7.335773    -174.441956    -2.100530    -13.508853    0.634874    -0.831228    7.894142    0.941004    1.564555    7.784174    -4.040156    7.621003    -8.367025    -2.697666    2.232592    17.960285    -2.424870    -47.365627    45.918087    -36.919834    2.394189    -8.571712    -16.205315    18.293268    -7.790587    2.783440    6.653613    20.198864    -5.263288    38.683186    47.143967    39.485916    -2.652501    -9.412898    17.618219    -16.490292    -8.425448    -4.059032    2.313532    -14.837322    -1.728135    -0.355844    20.545860    -2.090213    -3.535240    -11.863332    -8.801697    -0.868712    -0.215818    0.963308    -14.529524    -3.714793    -2.141192    4.946782    3.829795    1.662154    5.455536    -5.165270    -11.709310    -0.016948    -0.394778    0.018341    
-0.087980    80.083809    113.453079    -1.797879    -7.318979    -174.415573    -2.087871    -13.508872    0.655111    -0.842469    7.911197    0.960734    1.572065    7.788783    -4.064628    7.652121    -8.338967    -2.718841    2.217079    17.998674    -2.376091    -47.560703    45.805649    -36.725159    2.369277    -8.584986    -16.151335    18.258368    -7.810525    2.776364    6.664123    20.198189    -5.272822    38.670876    47.154922    39.501900    -2.673043    -9.430567    17.642523    -16.455093    -8.441532    -4.053311    2.313120    -14.862703    -1.773216    -0.339990    20.607359    -2.077953    -3.538295    -11.887632    -8.801593    -0.870003    -0.219624    0.964746    -14.515118    -3.686016    -2.122992    4.952105    3.814574    1.648256    5.459768    -5.169225    -11.726718    -0.016665    -0.392961    0.018035    
-0.084870    80.080399    113.456680    -1.784100    -7.304274    -174.393204    -2.075904    -13.509372    0.674979    -0.854917    7.927452    0.980150    1.579125    7.789133    -4.088358    7.681885    -8.319771    -2.738956    2.200845    18.038898    -2.326533    -47.763634    45.685368    -36.525177    2.345562    -8.594913    -16.090637    18.217478    -7.826814    2.771739    6.673900    20.197237    -5.282676    38.658207    47.166576    39.518776    -2.692522    -9.448439    17.670160    -16.416761    -8.458193    -4.046171    2.312263    -14.884843    -1.816992    -0.325963    20.661184    -2.063632    -3.540368    -11.909728    -8.800593    -0.871342    -0.223264    0.966237    -14.502481    -3.659992    -2.103389    4.957345    3.798643    1.634609    5.463769    -5.172066    -11.742897    -0.015955    -0.391875    0.017267    
